<?xml version="1.0" standalone="no"?>
<!DOCTYPE svg PUBLIC "-//W3C//DTD SVG 20010904//EN" "http://www.w3.org/TR/2001/REC-SVG-20010904/DTD/svg10.dtd">
<!-- Created using Karbon, part of Calligra: http://www.calligra.org/karbon -->
<svg xmlns="http://www.w3.org/2000/svg" xmlns:xlink="http://www.w3.org/1999/xlink" width="77.6pt" height="52.8pt">
<defs>
  <linearGradient id="gradient0" gradientTransform="" gradientUnits="objectBoundingBox" x1="0.00000000000" y1="0.00000000000" x2="1.00000000000" y2="1.00000000000" spreadMethod="pad">
   <stop stop-color="#ff0000" offset="0.00000000000" stop-opacity="1.00000000000"/>
   <stop stop-color="#ffff00" offset="1.00000000000" stop-opacity="1.00000000000"/>
  </linearGradient>
  <linearGradient id="gradient1" gradientTransform="" gradientUnits="objectBoundingBox" x1="0.00000000000" y1="0.00000000000" x2="1.00000000000" y2="1.00000000000" spreadMethod="pad">
   <stop stop-color="#ff0000" offset="0.00000000000" stop-opacity="1.00000000000"/>
   <stop stop-color="#ffff00" offset="1.00000000000" stop-opacity="1.00000000000"/>
  </linearGradient>
 </defs>
<g id="layer0">
  <path id="shape0" transform="translate(0, 24.8032)" fill="none" stroke="#ec8f05" stroke-width="1.77165661250" stroke-linecap="butt" stroke-linejoin="miter" stroke-miterlimit="1.98425540600" stroke-dasharray="5.6693,2.83465" d="M96 47.261C96 34.7267 90.9429 22.7057 81.9412 13.8425C72.9394 4.9793 60.7304 0 48 0C35.2696 0 23.0606 4.9793 14.0588 13.8425C5.05713 22.7056 0 34.7267 0 47.261"/>
  <path id="shape1" transform="matrix(-1 0 0 1 18.375 38.625)" fill="none" stroke="#fff200" stroke-width="3.89764454750" stroke-linecap="butt" stroke-linejoin="miter" stroke-miterlimit="1.98425540600" d="M18 33.1875C18 24.3857 16.1036 15.9443 12.7279 9.7204C9.3523 3.49655 4.77387 0 0 0"/>
  <g id="group0" transform="translate(32.6349, 10.1583)" fill="none">
   <path id="shape2" transform="matrix(0.956133 -0.292933 0.292933 0.956133 -32.9048 16.0327)" fill="url(#gradient0)" d="M13.8819 3.30343L13.8819 0.660761C13.8819 0.297352 14.1725 0 14.5275 0C14.8827 0 15.1733 0.297352 15.1733 0.660761L15.1733 3.30343C15.1733 3.66684 14.8827 3.96419 14.5275 3.96419C14.1725 3.96419 13.8819 3.66684 13.8819 3.30343ZM15.1733 26.4274L15.1733 29.0701C15.1733 29.4335 14.8827 29.7309 14.5275 29.7309C14.1725 29.7309 13.8819 29.4335 13.8819 29.0701L13.8819 26.4274C13.8819 26.064 14.1725 25.7667 14.5275 25.7667C14.8827 25.7667 15.1733 26.064 15.1733 26.4274ZM29.0552 14.8653C29.0552 15.2287 28.7646 15.526 28.4095 15.526L25.8267 15.526C25.4716 15.526 25.181 15.2287 25.181 14.8653C25.181 14.502 25.4716 14.2048 25.8267 14.2048L28.4095 14.2048C28.7646 14.2048 29.0552 14.502 29.0552 14.8653ZM3.87409 14.8653C3.87409 15.2287 3.58351 15.526 3.22841 15.526L0.645683 15.526C0.290586 15.526 0 15.2287 0 14.8653C0 14.502 0.290586 14.2048 0.645683 14.2048L3.22841 14.2048C3.58351 14.2048 3.87409 14.502 3.87409 14.8653ZM24.8001 4.35387C25.052 4.61162 25.052 5.0312 24.8001 5.28875L22.9729 7.15854C22.8471 7.28742 22.6825 7.35347 22.5178 7.35347C22.3532 7.35347 22.1885 7.28742 22.0626 7.15854C21.8107 6.90078 21.8107 6.4814 22.0626 6.22365L23.8899 4.35387C24.1383 4.0963 24.5485 4.0963 24.8001 4.35387ZM6.99583 22.5723C7.2477 22.8299 7.2477 23.2494 6.99583 23.5072L5.16854 25.3768C5.04261 25.5057 4.87796 25.5718 4.71331 25.5718C4.54867 25.5718 4.38402 25.5057 4.25827 25.3768C4.00639 25.1192 4.00639 24.6997 4.25827 24.442L6.08536 22.5723C6.33396 22.3145 6.74087 22.3145 6.99583 22.5723ZM24.8001 24.442C25.052 24.6997 25.052 25.1192 24.8001 25.3768C24.6742 25.5057 24.5095 25.5718 24.3449 25.5718C24.1802 25.5718 24.0156 25.5057 23.8899 25.3768L22.0626 23.5072C21.8107 23.2494 21.8107 22.8299 22.0626 22.5723C22.3143 22.3145 22.7245 22.3145 22.9761 22.5723ZM4.25499 5.28875C4.00312 5.0312 4.00312 4.61162 4.25499 4.35387C4.50687 4.0963 4.91686 4.0963 5.16854 4.35387L6.99583 6.22365C7.2477 6.4814 7.2477 6.90078 6.99583 7.15854C6.86988 7.28742 6.70524 7.35347 6.54059 7.35347C6.37596 7.35347 6.21131 7.28742 6.08536 7.15854Z"/>
   <ellipse id="shape3" transform="matrix(0.956133 -0.292933 0.292933 0.956133 -26.8224 19.3519)" rx="7.74803931102pt" ry="7.92821104244pt" cx="7.74803931102pt" cy="7.92821104244pt" fill="url(#gradient1)"/>
  </g>
 </g>
</svg>
